<svg width="1368" height="230" viewBox="0 0 1368 230" fill="none" xmlns="http://www.w3.org/2000/svg">
    <path
        d="M76.1797 37.5259C76.1788 37.5266 76.1786 37.5281 76.1777 37.5288C82.7546 37.8599 97.7091 40.9063 107.85 50.311C106.906 53.5226 107.902 57.7731 110.753 61.3169C114.778 66.3203 120.971 68.0192 124.585 65.1118C128.199 62.2043 127.866 55.7919 123.841 50.7886C120.93 47.1704 116.886 45.2807 113.503 45.6108C108.588 41.4814 97.634 34.7253 85.0957 32.3794C85.9349 32.0736 86.8075 31.7962 87.7148 31.5542C101.713 29.4547 135.797 36.5936 160.153 81.9458C189.739 137.037 168.762 172.298 155.993 180.989C160.567 174.265 161.43 162.32 161.253 156.262C164.304 154.375 166.454 149.871 166.454 144.613C166.454 137.655 162.693 132.015 158.055 132.015C153.416 132.015 149.656 137.655 149.656 144.613C149.656 150.51 152.357 155.46 156.005 156.833C156.065 170.16 148.313 181.486 144.236 185.742C137.947 187.06 132.423 186.559 129.708 185.88C136.357 171.182 145.579 129.914 126.559 100.519C111.614 77.4228 100.312 56.4258 67.7676 49.4009C68.6393 46.5683 71.2745 41.6475 76.1797 37.5259ZM146.017 185.324C145.674 185.413 145.332 185.496 144.993 185.575C145.332 185.496 145.674 185.413 146.017 185.324ZM150.81 183.714C150.514 183.838 150.218 183.954 149.923 184.068C150.218 183.954 150.514 183.837 150.81 183.714ZM76.998 36.8638C76.9136 36.9298 76.8303 36.9965 76.7471 37.063C76.8303 36.9965 76.9136 36.9297 76.998 36.8638ZM79.8584 34.8882C79.8083 34.9186 79.7587 34.9494 79.709 34.98C79.7587 34.9494 79.8083 34.9185 79.8584 34.8882ZM82.5635 33.4341C82.7493 33.3464 82.9372 33.26 83.127 33.1753C82.9372 33.26 82.7493 33.3464 82.5635 33.4341ZM83.7588 32.9019C84.0058 32.7983 84.2564 32.6984 84.5098 32.6001C84.2564 32.6982 84.0059 32.7984 83.7588 32.9019ZM82.1982 33.6099C82.3192 33.5507 82.4409 33.492 82.5635 33.4341C82.4409 33.492 82.3192 33.5507 82.1982 33.6099Z"
        fill="#485CAC" />
    <path
        d="M141.653 225.011C93.4416 243.292 43.7796 203.119 25.7725 174.009C-27.139 82.4628 13.5249 28.7802 40.4707 13.3826C40.9131 13.1183 41.3554 12.8589 41.7969 12.6033C41.3551 12.8591 40.9134 13.1201 40.4707 13.3845C39.4699 13.9564 38.4501 14.5811 37.417 15.2585C29.3586 23.972 17.6868 43.8971 18.4258 69.0251L18.0371 70.5759C13.9097 72.9895 11.0762 77.9703 11.0762 83.7234C11.0765 91.8404 16.7173 98.4207 23.6748 98.4207C30.632 98.4202 36.2722 91.8402 36.2725 83.7234C36.2725 77.0146 32.4193 71.3554 27.1543 69.5935L26.8232 69.0251C28.1409 52.8838 38.3278 16.5254 61.2354 3.90796C116.628 -13.7137 161.787 32.3675 178.001 61.6755C200.047 88.9715 219.993 164.56 165.402 210.753C160.158 215.19 154.825 218.746 149.453 221.524C152.44 219.979 155.415 218.193 158.369 216.148C136.313 221.938 111.045 212.045 101.136 206.016C103.547 199.957 98.8792 192.179 90.5469 188.501C82.0751 184.761 73.0243 186.675 70.3311 192.776C67.6382 198.877 72.3223 206.855 80.7939 210.594C85.5889 212.711 90.5694 213.015 94.4775 211.775C106.184 219.312 127.757 224.974 137.842 226.338C139.113 225.936 140.383 225.493 141.653 225.011ZM145.459 223.444C144.649 223.805 143.839 224.149 143.027 224.475C143.839 224.149 144.649 223.805 145.459 223.444ZM164.354 73.2234C131.809 15.4832 85.6181 14.4331 69.8691 35.4294C57.6211 50.8271 42.5734 94.8509 80.3672 147.762C127.609 213.901 164.353 184.507 171.702 176.108C179.051 167.709 196.898 130.964 164.354 73.2234ZM61.2354 3.90796C60.5895 4.11343 59.9416 4.32566 59.293 4.54858C59.9495 4.32293 60.6041 4.10401 61.2578 3.89624C61.2504 3.9003 61.2427 3.9039 61.2354 3.90796ZM142.899 224.526C142.505 224.684 142.111 224.839 141.716 224.989C142.111 224.839 142.505 224.684 142.899 224.526Z"
        fill="#6275C2" />
    <path
        d="M289.875 171C286.035 171 282.483 170.04 279.219 168.12C275.955 166.2 273.363 163.608 271.443 160.344C269.523 157.08 268.563 153.528 268.563 149.688V67.32H290.883V148.536H349.635V67.32H372.243V149.688C372.243 153.528 371.235 157.08 369.219 160.344C367.299 163.608 364.707 166.2 361.443 168.12C358.275 170.04 354.771 171 350.931 171H289.875ZM408.261 171C404.517 171 401.061 170.04 397.893 168.12C394.725 166.2 392.181 163.656 390.261 160.488C388.341 157.32 387.381 153.864 387.381 150.12V108.36C387.381 104.616 388.341 101.16 390.261 97.992C392.181 94.824 394.725 92.28 397.893 90.36C401.061 88.44 404.517 87.48 408.261 87.48H451.173C455.013 87.48 458.517 88.44 461.685 90.36C464.853 92.28 467.349 94.824 469.173 97.992C471.093 101.16 472.053 104.616 472.053 108.36V150.12C472.053 153.864 471.093 157.32 469.173 160.488C467.349 163.656 464.853 166.2 461.685 168.12C458.517 170.04 455.013 171 451.173 171H408.261ZM409.413 148.968H450.021V109.512H409.413V148.968ZM487.372 171V81C487.372 77.256 488.332 73.8 490.252 70.632C492.172 67.464 494.716 64.92 497.884 63C501.052 61.08 504.556 60.12 508.396 60.12H540.364V82.296H509.404V87.48H540.364V109.512H509.404V171H487.372ZM586.65 171V89.784H546.042V67.32H649.722V89.784H609.114V171H586.65ZM741.602 171L703.874 67.32H727.634L750.242 129.096L772.85 67.32H793.442L816.194 129.096L838.802 67.32H862.418L824.69 171H807.554L783.074 104.328L758.738 171H741.602ZM885.261 171C881.517 171 878.061 170.04 874.893 168.12C871.725 166.2 869.181 163.656 867.261 160.488C865.341 157.32 864.381 153.864 864.381 150.12V108.36C864.381 104.616 865.341 101.16 867.261 97.992C869.181 94.824 871.725 92.28 874.893 90.36C878.061 88.44 881.517 87.48 885.261 87.48H928.173C932.013 87.48 935.517 88.44 938.685 90.36C941.853 92.28 944.349 94.824 946.173 97.992C948.093 101.16 949.053 104.616 949.053 108.36V140.328H886.413V148.968H949.053V171H885.261ZM886.413 121.032H927.021V109.512H886.413V121.032ZM964.516 171V60.12H986.548V87.48H1028.31C1032.15 87.48 1035.65 88.44 1038.82 90.36C1041.99 92.28 1044.48 94.824 1046.31 97.992C1048.23 101.16 1049.19 104.616 1049.19 108.36V150.12C1049.19 153.864 1048.23 157.32 1046.31 160.488C1044.48 163.656 1041.99 166.2 1038.82 168.12C1035.65 170.04 1032.15 171 1028.31 171H964.516ZM986.548 148.968H1027.16V109.512H986.548V148.968ZM1060.28 171V108.36C1060.28 104.616 1061.24 101.16 1063.16 97.992C1065.08 94.824 1067.62 92.28 1070.79 90.36C1073.96 88.44 1077.46 87.48 1081.3 87.48H1127.38V109.512H1082.31V171H1060.28ZM1138.88 171V87.48H1160.92V171H1138.88ZM1138.88 82.296V60.12H1160.92V82.296H1138.88ZM1177.84 171V87.48H1241.64C1245.48 87.48 1248.98 88.44 1252.15 90.36C1255.32 92.28 1257.81 94.824 1259.64 97.992C1261.56 101.16 1262.52 104.616 1262.52 108.36V171H1240.48V109.512H1199.88V171H1177.84ZM1288.08 203.976V181.8H1337.62V171H1295.86C1292.02 171 1288.51 170.04 1285.34 168.12C1282.18 166.2 1279.63 163.656 1277.71 160.488C1275.79 157.32 1274.83 153.864 1274.83 150.12V108.36C1274.83 104.616 1275.79 101.16 1277.71 97.992C1279.63 94.824 1282.18 92.28 1285.34 90.36C1288.51 88.44 1292.02 87.48 1295.86 87.48H1338.77C1342.61 87.48 1346.11 88.44 1349.28 90.36C1352.45 92.28 1354.94 94.824 1356.77 97.992C1358.69 101.16 1359.65 104.616 1359.65 108.36V183.096C1359.65 186.936 1358.69 190.44 1356.77 193.608C1354.94 196.776 1352.45 199.272 1349.28 201.096C1346.11 203.016 1342.61 203.976 1338.77 203.976H1288.08ZM1296.86 148.968H1337.62V109.512H1296.86V148.968Z"
        fill="#6275C2" />
</svg>
    