<svg width="256" height="256" viewBox="0 0 256 256" fill="none" xmlns="http://www.w3.org/2000/svg">
<path d="M100.876 41.8041C100.875 41.8048 100.875 41.8065 100.874 41.8073C108.201 42.1762 124.863 45.5704 136.162 56.0487C135.11 59.6269 136.22 64.3626 139.396 68.3109C143.88 73.8855 150.78 75.7783 154.807 72.539C158.834 69.2996 158.463 62.1552 153.978 56.5808C150.735 52.5495 146.229 50.4441 142.46 50.8119C136.984 46.2111 124.779 38.6838 110.81 36.0701C111.745 35.7294 112.717 35.4203 113.728 35.1507C129.324 32.8115 167.299 40.7653 194.435 91.2947C227.399 152.675 204.027 191.961 189.8 201.644C194.897 194.153 195.858 180.844 195.661 174.094C199.06 171.992 201.456 166.974 201.456 161.116C201.456 153.363 197.265 147.08 192.098 147.08C186.929 147.08 182.74 153.363 182.74 161.116C182.74 167.686 185.749 173.201 189.814 174.731C189.881 189.579 181.244 202.198 176.701 206.94C169.694 208.408 163.54 207.85 160.515 207.094C167.923 190.718 178.198 144.739 157.006 111.988C140.355 86.2554 127.763 62.8615 91.5036 55.0347C92.4748 51.8787 95.4108 46.3962 100.876 41.8041Z" fill="white"/>
<path d="M173.823 250.692C120.108 271.059 64.7772 226.3 44.7145 193.867C-14.2371 91.8707 31.0687 32.06 61.0905 14.9047C61.5835 14.6102 62.0762 14.3212 62.5681 14.0364C62.0759 14.3214 61.5838 14.6122 61.0905 14.9068C59.9755 15.544 58.8393 16.24 57.6883 16.9947C48.7099 26.7029 35.7058 48.9026 36.5291 76.8991L36.096 78.6269C31.4975 81.316 28.3405 86.8654 28.3405 93.2752C28.3408 102.319 34.6256 109.65 42.3773 109.65C50.1287 109.65 56.4128 102.319 56.4131 93.2752C56.4131 85.8006 52.12 79.4954 46.254 77.5323L45.8851 76.8991C47.3532 58.9151 58.703 18.4062 84.2256 4.34845C145.942 -15.2848 196.256 36.0568 214.321 68.7105C238.883 99.1224 261.106 183.34 200.283 234.806C194.441 239.749 188.499 243.711 182.514 246.807C185.842 245.085 189.156 243.095 192.448 240.817C167.874 247.268 139.721 236.245 128.681 229.528C131.367 222.778 126.167 214.112 116.883 210.014C107.444 205.847 97.3603 207.979 94.3597 214.777C91.3594 221.574 96.5782 230.463 106.017 234.629C111.359 236.987 116.908 237.326 121.263 235.945C134.305 244.342 158.341 250.65 169.577 252.17C170.993 251.722 172.408 251.229 173.823 250.692ZM199.116 81.5766C162.856 17.2451 111.392 16.0751 93.8449 39.4682C80.1988 56.6237 63.4333 105.673 105.541 164.624C158.176 238.313 199.115 205.564 207.303 196.206C215.491 186.848 235.375 145.909 199.116 81.5766ZM84.2256 4.34845C83.506 4.57738 82.7842 4.81384 82.0615 5.0622C82.793 4.81079 83.5223 4.56688 84.2506 4.3354C84.2424 4.33992 84.2338 4.34393 84.2256 4.34845Z" fill="white"/>
</svg>
